<svg width="30" height="30" viewBox="0 0 30 30" fill="none" xmlns="http://www.w3.org/2000/svg">
<path fill-rule="evenodd" clip-rule="evenodd" d="M27.6994 6.53427L26.2369 6.18927L22.2844 10.1193L20.0456 7.83927L23.9006 3.7949L23.5631 2.3099C22.7485 2.03737 21.8964 1.89315 21.0375 1.8824C20.1005 1.86799 19.1705 2.0467 18.3056 2.4074C17.4705 2.78542 16.7156 3.32007 16.0819 3.9824C15.3764 4.65067 14.8177 5.45841 14.4412 6.35427C13.7165 8.13718 13.7165 10.1326 14.4412 11.9155C10.5323 15.7611 6.67386 19.6577 2.86687 23.6043C2.47312 24.1199 2.28562 24.763 2.33437 25.4099C2.37279 26.1056 2.68568 26.7577 3.20437 27.223C3.43687 27.4761 3.71437 27.6861 4.02374 27.838C4.34249 27.9786 4.68562 28.0593 5.03249 28.0761C5.62499 28.0649 6.19312 27.8399 6.63374 27.4443C9.53624 24.7124 15.0975 19.1005 18.2569 15.8118C19.1137 16.1755 20.0344 16.363 20.9644 16.3611C21.9005 16.3604 22.827 16.172 23.6891 15.8072C24.5513 15.4423 25.3315 14.9083 25.9837 14.2368C27.3235 12.8704 28.0718 11.0317 28.0669 9.11802C28.0885 8.24235 27.9643 7.36918 27.6994 6.53427ZM5.49937 26.1149C5.4272 26.179 5.3402 26.2241 5.24624 26.2461C5.1538 26.2621 5.0593 26.2621 4.96687 26.2461C4.86995 26.2314 4.77763 26.1948 4.69687 26.1393C4.6102 26.0885 4.53691 26.0178 4.48312 25.933C4.22062 25.6649 3.97499 25.1549 4.22062 24.868C6.78937 22.1361 12.0787 16.7961 15.3862 13.5318C15.5737 13.7793 15.78 14.0155 16.0012 14.2368C16.2225 14.4674 16.4606 14.6811 16.7137 14.8761C13.515 18.1574 8.29687 23.4336 5.49937 26.1149ZM26.3456 9.11802C26.3494 10.5524 25.7906 11.9305 24.7856 12.958C23.7827 13.9418 22.4339 14.4929 21.0291 14.4929C19.6242 14.4929 18.2754 13.9418 17.2725 12.958C16.5375 12.191 16.0354 11.2309 15.8246 10.1897C15.6138 9.14841 15.703 8.06869 16.0819 7.07615C16.334 6.40065 16.7252 5.7856 17.23 5.27077C17.7348 4.75594 18.3421 4.35279 19.0125 4.0874C19.649 3.82098 20.3324 3.68455 21.0225 3.68615H21.4987L18.0919 7.19802V8.50302L21.645 12.0393H22.8825L26.3456 8.63427V9.11802ZM6.07499 12.5399H8.94562L10.2675 13.8843L11.5387 12.6205L10.2919 11.3493V11.2686L10.3987 8.17677L9.98624 7.3574L4.62374 3.82865L3.51562 3.9524L1.95749 5.54427L1.83374 6.6674L5.27999 12.1386L6.07499 12.5399ZM4.30312 5.7299L8.64187 8.5874L8.56874 10.693H6.55124L3.75374 6.26427L4.30312 5.7299ZM17.625 18.7799L18.8887 17.518L24.7125 23.4899C25.203 24.0054 25.4766 24.6898 25.4766 25.4015C25.4766 26.1131 25.203 26.7975 24.7125 27.313C24.3436 27.6917 23.8693 27.9506 23.3513 28.0559C22.8333 28.1612 22.2956 28.1082 21.8081 27.9036C21.497 27.7657 21.218 27.5645 20.9887 27.313L15.0975 21.3074L16.3706 20.0361L22.2431 26.0249C22.3221 26.112 22.4203 26.1794 22.53 26.2218C22.7458 26.3094 22.9873 26.3094 23.2031 26.2218C23.3128 26.1794 23.411 26.1119 23.49 26.0249C23.5721 25.9436 23.636 25.8458 23.6775 25.738C23.7205 25.628 23.7434 25.5111 23.745 25.393C23.7431 25.2751 23.7209 25.1584 23.6794 25.048C23.6378 24.9402 23.5739 24.8425 23.4919 24.7612L17.625 18.7799Z" fill="#0A0A0A"/>
</svg>
