<svg width="64" height="64" viewBox="0 0 64 64" fill="none" xmlns="http://www.w3.org/2000/svg">
<g filter="url(#filter0_dd_1362_197659)">
<path d="M26.9048 42.0476H38.3333C38.8385 42.0476 39.323 41.8469 39.6802 41.4897C40.0374 41.1325 40.2381 40.648 40.2381 40.1429V24.9048C40.2381 24.3996 40.0374 23.9151 39.6802 23.5579C39.323 23.2007 38.8385 23 38.3333 23H26.9048C26.3996 23 25.9151 23.2007 25.5579 23.5579C25.2007 23.9151 25 24.3996 25 24.9048V40.1429C25 40.648 25.2007 41.1325 25.5579 41.4897C25.9151 41.8469 26.3996 42.0476 26.9048 42.0476ZM29.7619 39.1905H27.8571V37.2857H29.7619V39.1905ZM29.7619 35.381H27.8571V33.4762H29.7619V35.381ZM29.7619 31.5714H27.8571V29.6667H29.7619V31.5714ZM33.5714 39.1905H31.6667V37.2857H33.5714V39.1905ZM33.5714 35.381H31.6667V33.4762H33.5714V35.381ZM33.5714 31.5714H31.6667V29.6667H33.5714V31.5714ZM37.381 39.1905H35.4762V33.4762H37.381V39.1905ZM37.381 31.5714H35.4762V29.6667H37.381V31.5714ZM26.9048 24.9048H38.3333V27.7619H26.9048V24.9048Z" fill="black"/>
<circle cx="32" cy="32" r="19.5" stroke="black"/>
</g>
<defs>
<filter id="filter0_dd_1362_197659" x="0" y="0" width="64" height="64" filterUnits="userSpaceOnUse" color-interpolation-filters="sRGB">
<feFlood flood-opacity="0" result="BackgroundImageFix"/>
<feColorMatrix in="SourceAlpha" type="matrix" values="0 0 0 0 0 0 0 0 0 0 0 0 0 0 0 0 0 0 127 0" result="hardAlpha"/>
<feOffset dx="2" dy="2"/>
<feGaussianBlur stdDeviation="5"/>
<feComposite in2="hardAlpha" operator="out"/>
<feColorMatrix type="matrix" values="0 0 0 0 0 0 0 0 0 0 0 0 0 0 0 0 0 0 0.3 0"/>
<feBlend mode="normal" in2="BackgroundImageFix" result="effect1_dropShadow_1362_197659"/>
<feColorMatrix in="SourceAlpha" type="matrix" values="0 0 0 0 0 0 0 0 0 0 0 0 0 0 0 0 0 0 127 0" result="hardAlpha"/>
<feOffset dx="-2" dy="-2"/>
<feGaussianBlur stdDeviation="5"/>
<feComposite in2="hardAlpha" operator="out"/>
<feColorMatrix type="matrix" values="0 0 0 0 0 0 0 0 0 0 0 0 0 0 0 0 0 0 0.3 0"/>
<feBlend mode="normal" in2="effect1_dropShadow_1362_197659" result="effect2_dropShadow_1362_197659"/>
<feBlend mode="normal" in="SourceGraphic" in2="effect2_dropShadow_1362_197659" result="shape"/>
</filter>
</defs>
</svg>
