<svg width="85" height="40" viewBox="0 0 85 40" fill="none" xmlns="http://www.w3.org/2000/svg">
<mask id="mask0_1362_192175" style="mask-type:luminance" maskUnits="userSpaceOnUse" x="0" y="0" width="85" height="39">
<path d="M85 0H0V39H85V0Z" fill="white"/>
</mask>
<g mask="url(#mask0_1362_192175)">
<mask id="mask1_1362_192175" style="mask-type:luminance" maskUnits="userSpaceOnUse" x="-21" y="-5" width="127" height="73">
<path d="M105.413 -4.33325H-20.0787V67.6667H105.413V-4.33325Z" fill="white"/>
</mask>
<g mask="url(#mask1_1362_192175)">
<path d="M7.43151 18.9883H12.9267C13.1344 18.9883 13.3336 19.0705 13.4804 19.2167C13.6273 19.363 13.7098 19.5614 13.7098 19.7683C13.7098 19.9751 13.6273 20.1735 13.4804 20.3198C13.3336 20.4661 13.1344 20.5483 12.9267 20.5483H7.43151C7.22383 20.5483 7.02465 20.4661 6.8778 20.3198C6.73094 20.1735 6.64844 19.9751 6.64844 19.7683C6.64844 19.5614 6.73094 19.363 6.8778 19.2167C7.02465 19.0705 7.22383 18.9883 7.43151 18.9883Z" fill="white"/>
<path d="M5.63106 12.2488H14.7669C14.9746 12.2488 15.1737 12.331 15.3206 12.4772C15.4675 12.6235 15.55 12.8219 15.55 13.0288C15.55 13.2357 15.4675 13.434 15.3206 13.5803C15.1737 13.7266 14.9746 13.8088 14.7669 13.8088H6.2622V18.9878H8.07899C8.28667 18.9878 8.48585 19.07 8.6327 19.2162C8.77956 19.3625 8.86206 19.5609 8.86206 19.7678C8.86206 19.9746 8.77956 20.173 8.6327 20.3193C8.48585 20.4656 8.28667 20.5478 8.07899 20.5478H6.2622V25.8564H14.877C15.0847 25.8564 15.2838 25.9386 15.4307 26.0849C15.5775 26.2312 15.6601 26.4296 15.6601 26.6364C15.6601 26.8433 15.5775 27.0417 15.4307 27.188C15.2838 27.3343 15.0847 27.4164 14.877 27.4164H5.63106C5.34261 27.4164 5.06597 27.3023 4.86201 27.0991C4.65804 26.896 4.54346 26.6204 4.54346 26.3331V13.3331C4.54346 13.0458 4.65804 12.7702 4.86201 12.5671C5.06597 12.3639 5.34261 12.2498 5.63106 12.2498" fill="white"/>
<path d="M17.2757 18.9443H20.2025C20.4361 18.9443 20.6602 19.0368 20.8254 19.2013C20.9906 19.3659 21.0834 19.5891 21.0834 19.8218C21.0834 20.0546 20.9906 20.2778 20.8254 20.4423C20.6602 20.6069 20.4361 20.6993 20.2025 20.6993H17.2763C17.0427 20.6993 16.8186 20.6069 16.6534 20.4423C16.4882 20.2778 16.3954 20.0546 16.3954 19.8218C16.3954 19.5891 16.4882 19.3659 16.6534 19.2013C16.8186 19.0368 17.0427 18.9443 17.2763 18.9443" fill="white"/>
<path d="M23.0966 24.576C23.2319 24.4142 23.425 24.3111 23.6352 24.2884C23.8454 24.2656 24.0562 24.325 24.2233 24.454C25.5145 25.541 27.1581 26.1241 28.8484 26.095C30.8935 26.095 32.2421 25.0116 32.2421 23.5163V23.473C32.2421 22.0646 31.4808 21.2626 28.2829 20.5913C24.7805 19.8326 23.1708 18.7056 23.1708 16.214V16.171C23.1708 13.7873 25.2811 12.032 28.1741 12.032C29.8247 11.9836 31.4488 12.4534 32.8167 13.375C32.9109 13.4365 32.9915 13.5167 33.0535 13.6104C33.1155 13.7041 33.1577 13.8095 33.1773 13.9201C33.1969 14.0306 33.1936 14.144 33.1676 14.2532C33.1416 14.3625 33.0935 14.4653 33.0262 14.5553L33.0171 14.5676C32.8928 14.7345 32.709 14.8475 32.5035 14.8833C32.2981 14.9192 32.0866 14.8751 31.9128 14.7603C30.808 13.98 29.4856 13.5639 28.1313 13.5706C26.1519 13.5706 24.8902 14.654 24.8902 16.019V16.0623C24.8902 17.4926 25.6733 18.2956 29.0235 19.0093C32.4168 19.7463 33.9832 20.981 33.9832 23.2996V23.343C33.9832 25.943 31.808 27.6333 28.7842 27.6333C26.7644 27.6625 24.7966 26.9956 23.2137 25.7456C23.1271 25.6777 23.0552 25.5931 23.0022 25.4969C22.9493 25.4006 22.9164 25.2947 22.9055 25.1855C22.8946 25.0763 22.906 24.966 22.9389 24.8612C22.9719 24.7565 23.0257 24.6595 23.0972 24.576" fill="white"/>
<path d="M68.8162 13.0614C68.8162 12.846 68.9021 12.6393 69.055 12.4869C69.2079 12.3345 69.4154 12.2489 69.6317 12.2488H75.3652C77.2358 12.2488 78.7371 12.8121 79.6941 13.7654C80.0778 14.1624 80.379 14.6308 80.5806 15.1439C80.7823 15.6569 80.8803 16.2046 80.8691 16.7554V16.7991C80.8691 19.3128 79.3183 21.5228 74.8866 21.5228H70.5362V26.6368C70.5362 26.8436 70.4537 27.042 70.3069 27.1883C70.16 27.3346 69.9608 27.4168 69.7532 27.4168H69.6009C69.3932 27.4168 69.194 27.3346 69.0472 27.1883C68.9003 27.042 68.8178 26.8436 68.8178 26.6368L68.8162 13.0614ZM75.2119 19.9844C77.4962 19.9844 79.1272 18.8144 79.1272 16.8641V16.8208C79.1272 14.9574 77.6916 13.8308 75.2333 13.8308H70.5346V19.9844H75.2119Z" fill="white"/>
<path d="M48.3509 20.5911V13.0288C48.3509 12.8219 48.2684 12.6235 48.1215 12.4772C47.9746 12.331 47.7755 12.2488 47.5678 12.2488H47.4155C47.2078 12.2488 47.0087 12.331 46.8618 12.4772C46.715 12.6235 46.6325 12.8219 46.6325 13.0288V18.9878H37.8437V13.0288C37.8437 12.8219 37.7612 12.6235 37.6143 12.4772C37.4674 12.331 37.2683 12.2488 37.0606 12.2488H36.9083C36.7006 12.2488 36.5015 12.331 36.3546 12.4772C36.2077 12.6235 36.1252 12.8219 36.1252 13.0288V26.6368C36.1252 26.8436 36.2077 27.042 36.3546 27.1883C36.5015 27.3346 36.7006 27.4168 36.9083 27.4168H37.0606C37.2683 27.4168 37.4674 27.3346 37.6143 27.1883C37.7612 27.042 37.8437 26.8436 37.8437 26.6368V20.5911H48.3515H48.3509Z" fill="white"/>
<path d="M46.6328 22.946V26.6354C46.6328 26.8422 46.7153 27.0406 46.8622 27.1869C47.009 27.3332 47.2082 27.4154 47.4159 27.4154H47.5682C47.7758 27.4153 47.9749 27.3331 48.1218 27.1868C48.2686 27.0406 48.3511 26.8422 48.3512 26.6354V22.946H46.6328Z" fill="white"/>
<path d="M66.9298 19.789C66.9298 15.6074 63.8176 11.989 59.1854 11.989C57.6598 11.9644 56.1621 12.3977 54.887 13.2324C53.612 14.0671 52.6186 15.2647 52.036 16.6694H49.8167C49.7082 16.6672 49.6003 16.6866 49.4994 16.7264C49.3985 16.7663 49.3066 16.8258 49.2291 16.9014C49.1516 16.9771 49.09 17.0674 49.048 17.1671C49.0059 17.2667 48.9843 17.3738 48.9843 17.4819C48.9843 17.59 49.0059 17.697 49.048 17.7967C49.09 17.8963 49.1516 17.9866 49.2291 18.0623C49.3066 18.138 49.3985 18.1975 49.4994 18.2373C49.6003 18.2772 49.7082 18.2966 49.8167 18.2944H51.5424C51.4461 18.8014 51.3977 19.3163 51.3979 19.8324V19.8757C51.3982 20.2257 51.4206 20.5754 51.4648 20.9227H48.3506V22.548H51.8419C51.9344 22.8146 52.0409 23.0761 52.1612 23.3314H50.4C50.1865 23.3357 49.9832 23.4232 49.8338 23.5751C49.6843 23.727 49.6006 23.9312 49.6006 24.1439C49.6006 24.3565 49.6843 24.5608 49.8338 24.7127C49.9832 24.8646 50.1865 24.9521 50.4 24.9564H52.9098C52.9938 24.9553 53.0772 24.9411 53.1568 24.9144C53.8797 25.7958 54.794 26.5023 55.8308 26.9808C56.8675 27.4593 57.9998 27.6972 59.1422 27.6767C63.7757 27.6767 66.9301 24.0147 66.9301 19.8324C66.9519 19.8107 66.9519 19.8107 66.9301 19.789M65.1461 19.8757C65.1461 23.321 62.6661 26.0947 59.1857 26.0947C55.7054 26.0947 53.1815 23.278 53.1815 19.8324V19.789C53.1815 16.344 55.6616 13.5704 59.1422 13.5704C62.6229 13.5704 65.1461 16.3874 65.1461 19.8324V19.8757Z" fill="white"/>
<path d="M47.8218 20.9231H47.6013C47.3992 20.9231 47.2044 20.9978 47.0544 21.1328C46.9045 21.2677 46.8102 21.4533 46.7897 21.6535C46.7693 21.8537 46.8241 22.0544 46.9437 22.2167C47.0633 22.3789 47.2391 22.4912 47.437 22.5318C47.4911 22.5427 47.5461 22.5481 47.6013 22.5481H48.3506V20.9231H47.8218Z" fill="white"/>
<path d="M45.388 20.9287H44.4202C44.2067 20.933 44.0034 21.0205 43.854 21.1724C43.7046 21.3243 43.6208 21.5285 43.6208 21.7412C43.6208 21.9539 43.7046 22.1581 43.854 22.31C44.0034 22.4619 44.2067 22.5494 44.4202 22.5537H45.388C45.6015 22.5494 45.8047 22.4619 45.9542 22.31C46.1036 22.1581 46.1873 21.9539 46.1873 21.7412C46.1873 21.5285 46.1036 21.3243 45.9542 21.1724C45.8047 21.0205 45.6015 20.933 45.388 20.9287Z" fill="white"/>
</g>
<mask id="mask2_1362_192175" style="mask-type:luminance" maskUnits="userSpaceOnUse" x="4" y="4" width="77" height="55">
<path d="M80.8681 4.42212H4.54382V58.6141H80.8681V4.42212Z" fill="white"/>
</mask>
<g mask="url(#mask2_1362_192175)">
<path d="M79.5342 35.257H73.9369C73.8526 35.257 73.769 35.2405 73.6911 35.2083C73.6131 35.1762 73.5423 35.129 73.4826 35.0696C73.423 35.0102 73.3756 34.9396 73.3434 34.862C73.3111 34.7843 73.2944 34.7011 73.2944 34.6171C73.2944 34.533 73.3111 34.4498 73.3434 34.3721C73.3756 34.2945 73.423 34.2239 73.4826 34.1645C73.5423 34.1051 73.6131 34.0579 73.6911 34.0258C73.769 33.9936 73.8526 33.9771 73.9369 33.9771H79.5342C79.7046 33.9771 79.8681 34.0445 79.9886 34.1645C80.1091 34.2845 80.1767 34.4473 80.1767 34.6171C80.1767 34.7868 80.1091 34.9496 79.9886 35.0696C79.8681 35.1896 79.7046 35.257 79.5342 35.257Z" fill="white"/>
<path d="M11.475 5.70212H5.87775C5.70734 5.70212 5.54392 5.63469 5.42342 5.51467C5.30293 5.39465 5.23523 5.23186 5.23523 5.06212C5.23523 4.89238 5.30293 4.72959 5.42342 4.60957C5.54392 4.48955 5.70734 4.42212 5.87775 4.42212H11.475C11.6454 4.42212 11.8089 4.48955 11.9294 4.60957C12.0499 4.72959 12.1176 4.89238 12.1176 5.06212C12.1176 5.23186 12.0499 5.39465 11.9294 5.51467C11.8089 5.63469 11.6454 5.70212 11.475 5.70212Z" fill="white"/>
<path d="M71.3616 5.70212H14.5685C14.3981 5.70212 14.2347 5.63469 14.1142 5.51467C13.9937 5.39465 13.926 5.23186 13.926 5.06212C13.926 4.89238 13.9937 4.72959 14.1142 4.60957C14.2347 4.48955 14.3981 4.42212 14.5685 4.42212H71.3616C71.532 4.42212 71.6954 4.48955 71.8159 4.60957C71.9364 4.72959 72.0041 4.89238 72.0041 5.06212C72.0041 5.23186 71.9364 5.39465 71.8159 5.51467C71.6954 5.63469 71.532 5.70212 71.3616 5.70212Z" fill="white"/>
</g>
<mask id="mask3_1362_192175" style="mask-type:luminance" maskUnits="userSpaceOnUse" x="-21" y="-5" width="127" height="73">
<path d="M105.413 -4.33325H-20.0787V67.6667H105.413V-4.33325Z" fill="white"/>
</mask>
<g mask="url(#mask3_1362_192175)">
<path d="M71.3615 35.2568H14.5684C14.398 35.2568 14.2346 35.1894 14.1141 35.0694C13.9936 34.9493 13.9259 34.7865 13.9259 34.6168C13.9259 34.4471 13.9936 34.2843 14.1141 34.1643C14.2346 34.0442 14.398 33.9768 14.5684 33.9768H71.3615C71.5319 33.9768 71.6953 34.0442 71.8158 34.1643C71.9363 34.2843 72.004 34.4471 72.004 34.6168C72.004 34.7865 71.9363 34.9493 71.8158 35.0694C71.6953 35.1894 71.5319 35.2568 71.3615 35.2568Z" fill="white"/>
</g>
<mask id="mask4_1362_192175" style="mask-type:luminance" maskUnits="userSpaceOnUse" x="4" y="4" width="77" height="55">
<path d="M80.8681 4.42212H4.54382V58.6141H80.8681V4.42212Z" fill="white"/>
</mask>
<g mask="url(#mask4_1362_192175)">
<path d="M11.7912 35.257H10.7314C10.647 35.257 10.5635 35.2405 10.4855 35.2083C10.4076 35.1762 10.3367 35.129 10.2771 35.0696C10.2174 35.0102 10.1701 34.9396 10.1378 34.862C10.1055 34.7843 10.0889 34.7011 10.0889 34.6171C10.0889 34.533 10.1055 34.4498 10.1378 34.3721C10.1701 34.2945 10.2174 34.2239 10.2771 34.1645C10.3367 34.1051 10.4076 34.0579 10.4855 34.0258C10.5635 33.9936 10.647 33.9771 10.7314 33.9771H11.7912C11.8756 33.9771 11.9591 33.9936 12.0371 34.0258C12.115 34.0579 12.1859 34.1051 12.2455 34.1645C12.3052 34.2239 12.3525 34.2945 12.3848 34.3721C12.4171 34.4498 12.4337 34.533 12.4337 34.6171C12.4337 34.7011 12.4171 34.7843 12.3848 34.862C12.3525 34.9396 12.3052 35.0102 12.2455 35.0696C12.1859 35.129 12.115 35.1762 12.0371 35.2083C11.9591 35.2405 11.8756 35.257 11.7912 35.257Z" fill="white"/>
<path d="M75.0098 5.70212H73.95C73.7796 5.70212 73.6162 5.63469 73.4957 5.51467C73.3752 5.39465 73.3075 5.23186 73.3075 5.06212C73.3075 4.89238 73.3752 4.72959 73.4957 4.60957C73.6162 4.48955 73.7796 4.42212 73.95 4.42212H75.0098C75.1802 4.42212 75.3437 4.48955 75.4642 4.60957C75.5847 4.72959 75.6523 4.89238 75.6523 5.06212C75.6523 5.23186 75.5847 5.39465 75.4642 5.51467C75.3437 5.63469 75.1802 5.70212 75.0098 5.70212Z" fill="white"/>
</g>
<mask id="mask5_1362_192175" style="mask-type:luminance" maskUnits="userSpaceOnUse" x="-21" y="-5" width="127" height="73">
<path d="M105.413 -4.33325H-20.0787V67.6667H105.413V-4.33325Z" fill="white"/>
</mask>
<g mask="url(#mask5_1362_192175)">
<path d="M66.117 19.8394H65.3138C65.3138 21.2566 64.8205 22.63 63.9179 23.7255C63.0153 24.8211 61.7592 25.5709 60.3637 25.8474C58.9683 26.1239 57.5198 25.9098 56.265 25.2418C55.0102 24.5737 54.0268 23.4929 53.4823 22.1835C52.9379 20.8742 52.8661 19.4173 53.2791 18.0611C53.6922 16.7049 54.5645 15.5334 55.7476 14.746C56.9306 13.9587 58.3511 13.6043 59.767 13.7433C61.183 13.8822 62.5067 14.5059 63.5128 15.5081C64.0848 16.0762 64.5383 16.7513 64.8474 17.4947C65.1565 18.238 65.315 19.0349 65.3138 19.8394H66.9201C66.9201 18.0521 66.2978 16.32 65.1594 14.9384C64.021 13.5568 62.4369 12.6111 60.6769 12.2624C58.917 11.9138 57.0902 12.1838 55.5076 13.0264C53.9251 13.869 52.6849 15.2321 51.9983 16.8834C51.3116 18.5347 51.2211 20.3721 51.742 22.0825C52.2629 23.7929 53.3631 25.2705 54.8552 26.2635C56.3472 27.2564 58.1387 27.7034 59.9245 27.5281C61.7102 27.3529 63.3797 26.5663 64.6485 25.3024C65.3697 24.5857 65.9416 23.7341 66.3314 22.7966C66.7212 21.8591 66.9213 20.8542 66.9201 19.8394H66.117Z" fill="white"/>
<path d="M60.8614 19.8394H60.0582C60.0582 20.0456 59.9865 20.2453 59.8552 20.4047C59.7239 20.564 59.5413 20.6731 59.3383 20.7134C59.1353 20.7536 58.9246 20.7225 58.7421 20.6253C58.5596 20.5281 58.4165 20.371 58.3373 20.1805C58.2581 19.9901 58.2476 19.7782 58.3077 19.5809C58.3678 19.3836 58.4946 19.2132 58.6667 19.0987C58.8388 18.9841 59.0454 18.9326 59.2513 18.9528C59.4573 18.973 59.6499 19.0637 59.7962 19.2094C59.8795 19.292 59.9455 19.3902 59.9905 19.4983C60.0355 19.6064 60.0585 19.7224 60.0582 19.8394H61.6645C61.6645 19.263 61.4638 18.7045 61.0967 18.259C60.7296 17.8134 60.2188 17.5084 59.6513 17.396C59.0837 17.2836 58.4946 17.3706 57.9843 17.6423C57.474 17.9141 57.074 18.3536 56.8526 18.8861C56.6312 19.4186 56.602 20.0112 56.7699 20.5627C56.9379 21.1143 57.2927 21.5908 57.7738 21.911C58.255 22.2312 58.8327 22.3753 59.4086 22.3188C59.9844 22.2623 60.5228 22.0087 60.932 21.6011C61.1644 21.3699 61.3488 21.0953 61.4745 20.793C61.6002 20.4907 61.6647 20.1666 61.6645 19.8394H60.8614Z" fill="white"/>
<path d="M61.6474 17.3955C62.216 17.9621 62.5692 18.7079 62.6467 19.5053C62.7242 20.3027 62.5211 21.1021 62.0722 21.7668C61.6232 22.4315 60.9564 22.9202 60.1857 23.1493C59.415 23.3783 58.5883 23.3335 57.8472 23.0225C57.75 22.9816 57.6457 22.9601 57.5403 22.9593C57.4348 22.9585 57.3302 22.9784 57.2324 23.0179C57.1347 23.0574 57.0457 23.1157 56.9706 23.1894C56.8954 23.2631 56.8356 23.3509 56.7945 23.4477C56.7534 23.5444 56.7319 23.6483 56.7311 23.7534C56.7303 23.8584 56.7503 23.9626 56.7899 24.06C56.8296 24.1573 56.8881 24.246 56.9621 24.3208C57.0361 24.3956 57.1242 24.4552 57.2214 24.4962C58.306 24.9528 59.5164 25.0195 60.645 24.6849C61.7736 24.3502 62.7503 23.635 63.4076 22.6619C64.065 21.6887 64.3621 20.5181 64.2481 19.3507C64.1342 18.1832 63.6161 17.0916 62.7828 16.2628C62.7081 16.1886 62.6195 16.1297 62.5219 16.0896C62.4244 16.0495 62.3199 16.0289 62.2143 16.0291C62.1088 16.0292 62.0043 16.05 61.9069 16.0903C61.8094 16.1307 61.7209 16.1897 61.6464 16.2642C61.5719 16.3386 61.5128 16.4269 61.4725 16.524C61.4322 16.6212 61.4116 16.7253 61.4117 16.8304C61.4118 16.9356 61.4327 17.0396 61.4732 17.1367C61.5137 17.2338 61.573 17.3219 61.6477 17.3962" fill="white"/>
</g>
</g>
</svg>
