<svg width="18" height="18" viewBox="0 0 18 18" fill="none" xmlns="http://www.w3.org/2000/svg">
<path d="M8.5 13.5H9.5V8H8.5V13.5ZM9 6.577C9.17467 6.577 9.32067 6.518 9.438 6.4C9.556 6.282 9.615 6.136 9.615 5.962C9.615 5.78733 9.556 5.641 9.438 5.523C9.32067 5.405 9.17467 5.346 9 5.346C8.82533 5.346 8.67933 5.405 8.562 5.523C8.444 5.641 8.385 5.78733 8.385 5.962C8.385 6.136 8.444 6.282 8.562 6.4C8.67933 6.518 8.82533 6.577 9 6.577ZM9.003 18C7.759 18 6.589 17.764 5.493 17.292C4.39767 16.8193 3.44467 16.178 2.634 15.368C1.82333 14.5587 1.18167 13.6067 0.709 12.512C0.236333 11.4173 0 10.2477 0 9.003C0 7.759 0.236 6.589 0.708 5.493C1.18067 4.39767 1.822 3.44467 2.632 2.634C3.44133 1.82333 4.39333 1.18167 5.488 0.709C6.58267 0.236333 7.75233 0 8.997 0C10.241 0 11.411 0.236 12.507 0.708C13.6023 1.18067 14.5553 1.822 15.366 2.632C16.1767 3.44133 16.8183 4.39333 17.291 5.488C17.7637 6.58267 18 7.75233 18 8.997C18 10.241 17.764 11.411 17.292 12.507C16.8193 13.6023 16.178 14.5553 15.368 15.366C14.5587 16.1767 13.6067 16.8183 12.512 17.291C11.4173 17.7637 10.2477 18 9.003 18ZM9 17C11.2333 17 13.125 16.225 14.675 14.675C16.225 13.125 17 11.2333 17 9C17 6.76667 16.225 4.875 14.675 3.325C13.125 1.775 11.2333 1 9 1C6.76667 1 4.875 1.775 3.325 3.325C1.775 4.875 1 6.76667 1 9C1 11.2333 1.775 13.125 3.325 14.675C4.875 16.225 6.76667 17 9 17Z" fill="black"/>
</svg>
