<svg width="154" height="124" viewBox="0 0 154 124" fill="none" xmlns="http://www.w3.org/2000/svg">
<g clip-path="url(#clip0_2688_203)">
<path fill-rule="evenodd" clip-rule="evenodd" d="M74.879 19C77.525 19.0001 80.1187 19.7369 82.3696 21.1279C84.6205 22.5188 86.4396 24.509 87.6233 26.8755L94.2067 40.0378C95.3658 39.5627 96.5057 39.0497 97.6267 38.4987C98.7542 37.9356 100.059 37.8435 101.255 38.2425C102.45 38.6416 103.438 39.4993 104.001 40.6268C104.564 41.7543 104.657 43.0593 104.257 44.2547C103.858 45.4502 103.001 46.4381 101.873 47.0013C100.732 47.5095 99.5835 48.0035 98.4295 48.4832L102.994 57.6175C103.985 59.598 104.501 61.7822 104.5 63.9967V76C104.503 78.0054 104.081 79.9886 103.262 81.8192C102.444 83.6498 101.247 85.2863 99.75 86.621V92.625C99.75 94.5147 98.9993 96.3269 97.6631 97.6631C96.3269 98.9993 94.5147 99.75 92.625 99.75C90.7353 99.75 88.9231 98.9993 87.5869 97.6631C86.2507 96.3269 85.5 94.5147 85.5 92.625V90.25H28.5V92.625C28.5 94.5147 27.7493 96.3269 26.4131 97.6631C25.0769 98.9993 23.2647 99.75 21.375 99.75C19.4853 99.75 17.6731 98.9993 16.3369 97.6631C15.0007 96.3269 14.25 94.5147 14.25 92.625V86.621C11.3335 84.0085 9.5 80.218 9.5 76V63.992C9.50089 61.7807 10.0164 59.5999 11.0057 57.6222L15.5325 48.5592C14.3878 48.0747 13.2525 47.5618 12.1363 47.006C11.0144 46.4356 10.1617 45.4472 9.76188 44.2538C9.36204 43.0605 9.44711 41.7579 9.99875 40.6268C10.2774 40.0683 10.6633 39.5702 11.1346 39.161C11.6058 38.7517 12.153 38.4394 12.745 38.2418C13.337 38.0441 13.9622 37.9651 14.5847 38.0092C15.2073 38.0533 15.815 38.2197 16.3733 38.4987C17.4943 39.0545 18.639 39.5627 19.7932 40.0378L26.3767 26.8802C27.5597 24.5129 29.3786 22.5217 31.6295 21.1299C33.8805 19.738 36.4745 19.0005 39.121 19H74.879ZM35.625 61.75C33.7353 61.75 31.9231 62.5007 30.5869 63.8369C29.2507 65.1731 28.5 66.9853 28.5 68.875C28.5 70.7647 29.2507 72.5769 30.5869 73.9131C31.9231 75.2493 33.7353 76 35.625 76C37.5147 76 39.3269 75.2493 40.6631 73.9131C41.9993 72.5769 42.75 70.7647 42.75 68.875C42.75 66.9853 41.9993 65.1731 40.6631 63.8369C39.3269 62.5007 37.5147 61.75 35.625 61.75ZM78.375 61.75C76.4853 61.75 74.6731 62.5007 73.3369 63.8369C72.0007 65.1731 71.25 66.9853 71.25 68.875C71.25 70.7647 72.0007 72.5769 73.3369 73.9131C74.6731 75.2493 76.4853 76 78.375 76C80.2647 76 82.0769 75.2493 83.4131 73.9131C84.7493 72.5769 85.5 70.7647 85.5 68.875C85.5 66.9853 84.7493 65.1731 83.4131 63.8369C82.0769 62.5007 80.2647 61.75 78.375 61.75ZM74.879 28.5H39.121C38.3392 28.4999 37.5694 28.6927 36.88 29.0615C36.1906 29.4302 35.6029 29.9634 35.169 30.6138L34.8745 31.1267L28.842 43.1822C36.195 45.3862 46.1035 47.5 57 47.5C67.1745 47.5 76.4798 45.657 83.6475 43.6192L85.1533 43.1822L79.1255 31.1267C78.7759 30.4276 78.2592 29.8256 77.6212 29.374C76.9832 28.9224 76.2436 28.6353 75.468 28.538L74.8838 28.5H74.879Z" fill="black"/>
</g>
<path d="M126 117.817L122.617 114.737C110.6 103.84 102.667 96.63 102.667 87.8333C102.667 80.6233 108.313 75 115.5 75C119.56 75 123.457 76.89 126 79.8533C128.543 76.89 132.44 75 136.5 75C143.687 75 149.333 80.6233 149.333 87.8333C149.333 96.63 141.4 103.84 129.383 114.737L126 117.817Z" fill="black"/>
<defs>
<clipPath id="clip0_2688_203">
<rect width="114" height="114" fill="white"/>
</clipPath>
</defs>
</svg>
