<svg width="110" height="42" viewBox="0 0 110 42" fill="none" xmlns="http://www.w3.org/2000/svg">
<path d="M88.8792 32.6251L88.87 32.6138L88.8602 32.603C88.5737 32.2885 88.1791 32.0272 87.7755 32.0031C87.5569 31.99 87.3031 32.0484 87.1093 32.2516C86.9228 32.4473 86.863 32.7033 86.863 32.9398V41.086H79.8621V10.6839H86.7556V11.4569C86.7556 11.8954 86.7976 12.2606 86.9175 12.5258C86.9807 12.6657 87.0821 12.8144 87.2466 12.9136C87.4204 13.0184 87.6065 13.0329 87.7661 13.0022C88.0407 12.9495 88.269 12.758 88.4171 12.6161C88.579 12.4609 88.7358 12.2733 88.8718 12.0995C88.8725 12.0987 88.8732 12.098 88.8739 12.0972C89.0001 11.9615 89.4211 11.5087 90.2151 11.0558C91.0989 10.5516 92.4506 10.0474 94.3437 10.0474C96.2279 10.0474 98.6366 10.6908 100.569 12.4742C102.489 14.2464 103.992 17.1934 103.992 21.9066C103.992 25.5703 103.084 28.6916 101.447 30.8835C99.8209 33.0611 97.4575 34.3494 94.451 34.3494C92.7725 34.3494 91.4543 34.0179 90.5131 33.631C89.5536 33.2366 89.0208 32.8 88.8792 32.6251ZM86.702 22.2134C86.648 24.533 86.8692 26.4366 87.6733 27.7679C88.5135 29.1589 89.9266 29.8328 91.981 29.8328C93.0437 29.8328 93.9097 29.5427 94.5988 29.0292C95.2823 28.52 95.7592 27.8156 96.0922 27.0361C96.7519 25.492 96.8842 23.562 96.8842 21.9597C96.8842 20.3493 96.6981 18.6698 95.935 17.3817C95.1429 16.0447 93.7741 15.2018 91.6104 15.2005C90.2283 15.1722 88.9968 15.7017 88.1153 16.8953C87.2508 18.0658 86.7569 19.8277 86.702 22.2134Z" fill="white" stroke="white"/>
<mask id="path-2-inside-1_1362_197623" fill="white">
<path d="M18.1497 0H26.7413V22.1724C26.7413 25.9916 25.0767 34.0012 13.2096 34.0012C1.28874 34.0543 0 26.575 0 22.3846V18.3002H8.26941V22.2785C8.26941 24.7185 9.93403 26.9994 13.0485 26.9994C16.1629 26.9994 18.096 25.2489 18.096 22.3846V0"/>
</mask>
<path d="M18.1497 0H26.7413V22.1724C26.7413 25.9916 25.0767 34.0012 13.2096 34.0012C1.28874 34.0543 0 26.575 0 22.3846V18.3002H8.26941V22.2785C8.26941 24.7185 9.93403 26.9994 13.0485 26.9994C16.1629 26.9994 18.096 25.2489 18.096 22.3846V0" fill="white"/>
<path d="M26.7413 0H27.7413V-1H26.7413V0ZM13.2096 34.0012V33.0012L13.2051 33.0012L13.2096 34.0012ZM0 18.3002V17.3002H-1V18.3002H0ZM8.26941 18.3002H9.26941V17.3002H8.26941V18.3002ZM18.1497 1H26.7413V-1H18.1497V1ZM25.7413 0V22.1724H27.7413V0H25.7413ZM25.7413 22.1724C25.7413 23.9668 25.3455 26.6736 23.6318 28.9109C21.9566 31.0978 18.8947 33.0012 13.2096 33.0012V35.0012C19.3916 35.0012 23.0956 32.8998 25.2195 30.1271C27.3048 27.4047 27.7413 24.1971 27.7413 22.1724H25.7413ZM13.2051 33.0012C7.46625 33.0268 4.50337 31.2506 2.93093 29.1795C1.3175 27.0545 1 24.4064 1 22.3846H-1C-1 24.5532 -0.673135 27.74 1.33802 30.3889C3.39016 33.0918 7.03206 35.0287 13.214 35.0012L13.2051 33.0012ZM1 22.3846V18.3002H-1V22.3846H1ZM0 19.3002H8.26941V17.3002H0V19.3002ZM7.26941 18.3002V22.2785H9.26941V18.3002H7.26941ZM7.26941 22.2785C7.26941 23.7204 7.76123 25.1511 8.7552 26.2311C9.76196 27.3251 11.2298 27.9994 13.0485 27.9994V25.9994C11.7527 25.9994 10.831 25.5333 10.2268 24.8768C9.60989 24.2064 9.26941 23.2766 9.26941 22.2785H7.26941ZM13.0485 27.9994C14.788 27.9994 16.313 27.5089 17.414 26.5051C18.526 25.491 19.096 24.052 19.096 22.3846H17.096C17.096 23.5815 16.6995 24.4499 16.0664 25.0272C15.4222 25.6146 14.4234 25.9994 13.0485 25.9994V27.9994ZM19.096 22.3846V0H17.096V22.3846H19.096Z" fill="white" mask="url(#path-2-inside-1_1362_197623)"/>
<path d="M51.551 27.1293C51.3464 28.4909 50.3299 30.0949 48.5611 31.421C46.5904 32.8985 43.7455 33.9783 40.2836 33.9269L40.2836 33.9267L40.2729 33.9268C36.378 33.9525 33.5113 32.5464 31.6136 30.4327C29.7077 28.3099 28.7479 25.4377 28.7479 22.4919C28.7479 19.5272 29.598 16.3337 31.377 13.8951C33.1441 11.4728 35.832 9.78394 39.5781 9.78394C42.8851 9.78394 45.8885 10.4138 48.0686 12.3926C50.1768 14.3061 51.6114 17.5706 51.6933 23.0528H36.2489H35.7489V23.5528C35.7489 25.4663 36.1481 26.9207 36.9993 27.899C37.8629 28.8918 39.1112 29.3041 40.5983 29.3041C42.1148 29.3041 43.1584 28.6973 43.8186 28.0827C44.1457 27.7781 44.3772 27.4734 44.5281 27.2429C44.5543 27.2028 44.5782 27.1648 44.5998 27.1293H51.551ZM44.6257 19.3319H45.1257V18.8319C45.1257 17.6039 44.7794 16.3674 43.9961 15.4284C43.2016 14.4759 41.9953 13.8762 40.3836 13.8762C38.8288 13.8762 37.7036 14.4349 36.9842 15.3877C36.2827 16.3167 36.0173 17.554 36.0173 18.8319V19.3319H36.5173H44.6257Z" fill="white" stroke="white"/>
<path d="M77.0527 27.1293C76.8481 28.4909 75.8315 30.0949 74.0628 31.421C72.0921 32.8985 69.2471 33.9783 65.7853 33.9269L65.7853 33.9267L65.7746 33.9268C61.8518 33.9525 58.9717 32.5457 57.0678 30.4321C55.1556 28.3095 54.1959 25.4376 54.1959 22.4919C54.1959 19.5271 55.046 16.3337 56.825 13.8951C58.5921 11.4728 61.28 9.78394 65.0261 9.78394C68.3331 9.78394 71.3365 10.4138 73.5166 12.3926C75.6248 14.3061 77.0594 17.5706 77.1413 23.0528H61.6968H61.1968V23.5528C61.1968 25.4663 61.5961 26.9207 62.4473 27.899C63.3109 28.8918 64.5592 29.3041 66.0463 29.3041C67.5628 29.3041 68.6064 28.6973 69.2666 28.0827C69.5937 27.7781 69.8252 27.4734 69.976 27.2429C70.0023 27.2028 70.0262 27.1648 70.0477 27.1293H77.0527ZM70.0736 19.3319H70.5736V18.8319C70.5736 17.6039 70.2274 16.3674 69.4441 15.4284C68.6496 14.4759 67.4433 13.8762 65.8315 13.8762C64.2768 13.8762 63.1516 14.4349 62.4322 15.3877C61.7307 16.3167 61.4653 17.554 61.4653 18.8319V19.3319H61.9653H70.0736Z" fill="white" stroke="white"/>
<path d="M107.393 34.7977C108.52 34.7977 109.434 33.8953 109.434 32.782C109.434 31.6688 108.52 30.7664 107.393 30.7664C106.266 30.7664 105.353 31.6688 105.353 32.782C105.353 33.8953 106.266 34.7977 107.393 34.7977Z" fill="white" stroke="white" stroke-width="0.425"/>
<mask id="path-7-inside-2_1362_197623" fill="white">
<path d="M106.856 32.6725V31.8768H107.5C107.768 31.8768 107.93 32.0359 107.93 32.2481C107.93 32.5133 107.769 32.6725 107.446 32.6725H106.856ZM108.252 33.8925L107.822 32.8316C107.983 32.7785 108.037 32.7255 108.091 32.6725C108.198 32.5664 108.252 32.4072 108.252 32.2481C108.252 31.8768 107.93 31.6116 107.554 31.6116H106.641V33.8925H106.909V32.9377H107.554L107.983 33.8925H108.252Z"/>
</mask>
<path d="M106.856 32.6725V31.8768H107.5C107.768 31.8768 107.93 32.0359 107.93 32.2481C107.93 32.5133 107.769 32.6725 107.446 32.6725H106.856ZM108.252 33.8925L107.822 32.8316C107.983 32.7785 108.037 32.7255 108.091 32.6725C108.198 32.5664 108.252 32.4072 108.252 32.2481C108.252 31.8768 107.93 31.6116 107.554 31.6116H106.641V33.8925H106.909V32.9377H107.554L107.983 33.8925H108.252Z" fill="white"/>
<path d="M106.856 32.6725H105.856V33.6725H106.856V32.6725ZM106.856 31.8768V30.8768H105.856V31.8768H106.856ZM108.252 33.8925V34.8925H109.736L109.179 33.5171L108.252 33.8925ZM107.822 32.8316L107.509 31.8818L106.494 32.2161L106.895 33.2069L107.822 32.8316ZM106.641 31.6116V30.6116H105.641V31.6116H106.641ZM106.641 33.8925H105.641V34.8925H106.641V33.8925ZM106.909 33.8925V34.8925H107.909V33.8925H106.909ZM106.909 32.9377V31.9377H105.909V32.9377H106.909ZM107.554 32.9377L108.466 32.5274L108.2 31.9377H107.554V32.9377ZM107.983 33.8925L107.071 34.3028L107.337 34.8925H107.983V33.8925ZM107.856 32.6725V31.8768H105.856V32.6725H107.856ZM106.856 32.8768H107.5V30.8768H106.856V32.8768ZM107.5 32.8768C107.438 32.8768 107.291 32.8561 107.147 32.7269C106.997 32.5916 106.93 32.4075 106.93 32.2481H108.93C108.93 31.8766 108.782 31.5068 108.484 31.2389C108.192 30.977 107.831 30.8768 107.5 30.8768V32.8768ZM106.93 32.2481C106.93 32.1743 106.958 31.9808 107.138 31.8185C107.217 31.7463 107.298 31.7083 107.357 31.6898C107.385 31.6808 107.408 31.6765 107.423 31.6745C107.437 31.6725 107.446 31.6725 107.446 31.6725V33.6725C107.759 33.6725 108.155 33.5953 108.48 33.301C108.82 32.9928 108.93 32.5871 108.93 32.2481H106.93ZM107.446 31.6725H106.856V33.6725H107.446V31.6725ZM109.179 33.5171L108.749 32.4563L106.895 33.2069L107.325 34.2678L109.179 33.5171ZM108.135 33.7814C108.279 33.734 108.417 33.6727 108.547 33.5872C108.677 33.5011 108.765 33.4116 108.793 33.3839L107.388 31.961C107.362 31.9863 107.397 31.9499 107.447 31.9169C107.496 31.8843 107.527 31.8761 107.509 31.8818L108.135 33.7814ZM108.793 33.3839C109.133 33.0485 109.252 32.6092 109.252 32.2481H107.252C107.252 32.2177 107.257 32.1796 107.273 32.1347C107.29 32.0897 107.323 32.0251 107.388 31.961L108.793 33.3839ZM109.252 32.2481C109.252 31.212 108.362 30.6116 107.554 30.6116V32.6116C107.51 32.6116 107.445 32.5964 107.381 32.5399C107.31 32.4768 107.252 32.3696 107.252 32.2481H109.252ZM107.554 30.6116H106.641V32.6116H107.554V30.6116ZM105.641 31.6116V33.8925H107.641V31.6116H105.641ZM106.641 34.8925H106.909V32.8925H106.641V34.8925ZM107.909 33.8925V32.9377H105.909V33.8925H107.909ZM106.909 33.9377H107.554V31.9377H106.909V33.9377ZM106.642 33.348L107.071 34.3028L108.895 33.4822L108.466 32.5274L106.642 33.348ZM107.983 34.8925H108.252V32.8925H107.983V34.8925Z" fill="white" mask="url(#path-7-inside-2_1362_197623)"/>
</svg>
