<svg width="114" height="114" viewBox="0 0 114 114" fill="none" xmlns="http://www.w3.org/2000/svg">
<g clip-path="url(#clip0_1362_208860)">
<path d="M101.456 58.4194L94.4455 37.3864C93.4285 34.3241 91.4722 31.6602 88.8547 29.7732C86.2372 27.8862 83.0916 26.8721 79.8649 26.875H33.1351C29.9084 26.8721 26.7628 27.8862 24.1453 29.7732C21.5278 31.6602 19.5715 34.3241 18.5545 37.3864L11.5435 58.4194C9.67954 59.2 8.08777 60.514 6.96808 62.1963C5.84838 63.8786 5.25067 65.8542 5.25 67.875V83.25C5.25 87.0322 7.3205 90.302 10.375 92.0804V98.625C10.375 99.9842 10.915 101.288 11.8761 102.249C12.8372 103.21 14.1408 103.75 15.5 103.75H20.625C21.9842 103.75 23.2878 103.21 24.2489 102.249C25.21 101.288 25.75 99.9842 25.75 98.625V93.5H87.25V98.625C87.25 99.9842 87.7899 101.288 88.7511 102.249C89.7122 103.21 91.0158 103.75 92.375 103.75H97.5C98.8592 103.75 100.163 103.21 101.124 102.249C102.085 101.288 102.625 99.9842 102.625 98.625V92.0804C104.18 91.1887 105.472 89.9029 106.372 88.3527C107.272 86.8024 107.747 85.0424 107.75 83.25V67.875C107.75 63.6161 105.152 59.9722 101.456 58.4194ZM33.1351 37.125H79.8598C80.9358 37.1247 81.9847 37.4632 82.8576 38.0924C83.7306 38.7216 84.3833 39.6096 84.7234 40.6305L90.3916 57.625H22.6084L28.2715 40.6305C28.9736 38.5344 30.9314 37.125 33.1351 37.125ZM23.1875 83.25C22.1776 83.2497 21.1777 83.0504 20.2448 82.6637C19.312 82.2769 18.4644 81.7101 17.7506 80.9958C16.3089 79.5532 15.4993 77.5969 15.5 75.5574C15.5007 73.5178 16.3115 71.5621 17.7542 70.1204C19.1968 68.6787 21.1531 67.8692 23.1926 67.8699C25.2322 67.8706 27.1879 68.6814 28.6296 70.1241C30.0713 71.5667 30.8808 73.523 30.8801 75.5625C30.8794 77.602 30.0686 79.5578 28.6259 80.9994C27.1833 82.4411 25.227 83.2507 23.1875 83.25ZM89.8125 83.25C87.773 83.2493 85.8172 82.4385 84.3756 80.9958C82.9339 79.5532 82.1243 77.5969 82.125 75.5574C82.1257 73.5178 82.9365 71.5621 84.3792 70.1204C85.8218 68.6787 87.7781 67.8692 89.8176 67.8699C91.8572 67.8706 93.8129 68.6814 95.2546 70.1241C96.6963 71.5667 97.5058 73.523 97.5051 75.5625C97.5044 77.602 96.6936 79.5578 95.251 80.9994C93.8083 82.4411 91.852 83.2507 89.8125 83.25ZM22.0446 16.625C23.823 19.6744 27.0928 21.75 30.875 21.75C34.6572 21.75 37.927 19.6744 39.7054 16.625H73.2998C75.073 19.6744 78.3428 21.75 82.125 21.75C85.9072 21.75 89.177 19.6744 90.9554 16.625H82.125V6.375H90.9554C89.177 3.32562 85.9072 1.25 82.125 1.25C78.3428 1.25 75.073 3.32562 73.2946 6.375H39.7054C37.927 3.32562 34.6572 1.25 30.875 1.25C27.0928 1.25 23.823 3.32562 22.0446 6.375H30.875V16.625H22.0446Z" fill="black"/>
</g>
<defs>
<clipPath id="clip0_1362_208860">
<rect width="114" height="114" fill="white"/>
</clipPath>
</defs>
</svg>
