<svg width="35" height="35" viewBox="0 0 35 35" fill="none" xmlns="http://www.w3.org/2000/svg">
<path d="M17.5 30.5696C14.5707 29.6995 12.1367 27.9247 10.1981 25.2452C8.26045 22.5648 7.29163 19.5456 7.29163 16.1875V8.30085L17.5 4.4873L27.7083 8.30085V16.1875C27.7083 19.5456 26.7395 22.5643 24.8018 25.2438C22.8632 27.9242 20.4293 29.6995 17.5 30.5696ZM17.5 29.0208C20.0277 28.2188 22.118 26.6146 23.7708 24.2083C25.4236 21.8021 26.25 19.1285 26.25 16.1875V9.29689L17.5 6.0448L8.74996 9.29689V16.1875C8.74996 19.1285 9.57635 21.8021 11.2291 24.2083C12.8819 26.6146 14.9722 28.2188 17.5 29.0208Z" fill="#0A0A0A"/>
</svg>
