<svg width="23" height="23" viewBox="0 0 23 23" fill="none" xmlns="http://www.w3.org/2000/svg">
<g id="bxs:calculator">
<path id="Vector" d="M5.90476 21.0476H17.3333C17.8385 21.0476 18.323 20.8469 18.6802 20.4897C19.0374 20.1325 19.2381 19.648 19.2381 19.1429V3.90476C19.2381 3.39959 19.0374 2.9151 18.6802 2.55789C18.323 2.20068 17.8385 2 17.3333 2H5.90476C5.39959 2 4.9151 2.20068 4.55789 2.55789C4.20068 2.9151 4 3.39959 4 3.90476V19.1429C4 19.648 4.20068 20.1325 4.55789 20.4897C4.9151 20.8469 5.39959 21.0476 5.90476 21.0476ZM8.7619 18.1905H6.85714V16.2857H8.7619V18.1905ZM8.7619 14.381H6.85714V12.4762H8.7619V14.381ZM8.7619 10.5714H6.85714V8.66667H8.7619V10.5714ZM12.5714 18.1905H10.6667V16.2857H12.5714V18.1905ZM12.5714 14.381H10.6667V12.4762H12.5714V14.381ZM12.5714 10.5714H10.6667V8.66667H12.5714V10.5714ZM16.381 18.1905H14.4762V12.4762H16.381V18.1905ZM16.381 10.5714H14.4762V8.66667H16.381V10.5714ZM5.90476 3.90476H17.3333V6.7619H5.90476V3.90476Z" fill="black"/>
</g>
</svg>
