<svg width="17" height="16" viewBox="0 0 17 16" fill="none" xmlns="http://www.w3.org/2000/svg">
<path fill-rule="evenodd" clip-rule="evenodd" d="M9.28063 2.66634C9.20693 2.45782 9.16683 2.23343 9.16683 1.99967C9.16683 1.76592 9.20693 1.54153 9.28063 1.33301H4.65537C3.10334 1.33301 1.8335 2.60285 1.8335 4.15488V11.8445C1.8335 13.3965 3.10334 14.6663 4.65537 14.6663H12.345C13.897 14.6663 15.1668 13.3965 15.1668 11.8445V7.2192C14.9583 7.2929 14.7339 7.33301 14.5002 7.33301C14.2664 7.33301 14.042 7.29291 13.8335 7.2192V11.8445C13.8335 12.6601 13.1606 13.333 12.345 13.333H4.65537C3.83972 13.333 3.16683 12.6601 3.16683 11.8445V4.15488C3.16683 3.33923 3.83972 2.66634 4.65537 2.66634H9.28063Z" fill="black"/>
<path fill-rule="evenodd" clip-rule="evenodd" d="M10.5 1.99967C10.5 1.63148 10.7985 1.33301 11.1667 1.33301H14.5C14.8682 1.33301 15.1667 1.63148 15.1667 1.99967V5.33301C15.1667 5.7012 14.8682 5.99967 14.5 5.99967C14.1318 5.99967 13.8333 5.7012 13.8333 5.33301V3.60915L9.63807 7.80441C9.37772 8.06476 8.95561 8.06476 8.69526 7.80441C8.43491 7.54406 8.43491 7.12195 8.69526 6.8616L12.8905 2.66634H11.1667C10.7985 2.66634 10.5 2.36786 10.5 1.99967Z" fill="black"/>
</svg>
