<svg width="41" height="28" viewBox="0 0 41 28" fill="none" xmlns="http://www.w3.org/2000/svg">
<g id="formkit:arrowleft">
<path id="Vector" d="M32.0312 15.5556H8.96875C8.25125 15.5556 7.6875 14.8711 7.6875 14C7.6875 13.1289 8.25125 12.4445 8.96875 12.4445H32.0312C32.7488 12.4445 33.3125 13.1289 33.3125 14C33.3125 14.8711 32.7488 15.5556 32.0312 15.5556Z" fill="black"/>
<path id="Vector_2" d="M15.375 26.4444C15.207 26.4469 15.0404 26.4067 14.8859 26.3263C14.7314 26.2459 14.5925 26.1272 14.4781 25.9778L5.50938 15.0889C4.99688 14.4667 4.99688 13.5022 5.50938 12.88L14.4781 2.02221C14.9906 1.39999 15.785 1.39999 16.2975 2.02221C16.81 2.64443 16.81 3.60888 16.2975 4.2311L8.22563 14.0311L16.2975 23.8311C16.81 24.4533 16.81 25.4178 16.2975 26.04C16.0413 26.3511 15.7081 26.5067 15.4006 26.5067L15.375 26.4444Z" fill="black"/>
</g>
</svg>
