<svg width="25" height="25" viewBox="0 0 25 25" fill="none" xmlns="http://www.w3.org/2000/svg">
<g id="material-symbols-light:info">
<path id="Vector" d="M11.9792 17.1875H13.0208V11.4583H11.9792V17.1875ZM12.5 9.97604C12.6819 9.97604 12.834 9.91458 12.9562 9.79167C13.0792 9.66875 13.1406 9.51667 13.1406 9.33542C13.1406 9.15347 13.0792 9.00104 12.9562 8.87812C12.834 8.75521 12.6819 8.69375 12.5 8.69375C12.3181 8.69375 12.166 8.75521 12.0437 8.87812C11.9208 9.00104 11.8594 9.15347 11.8594 9.33542C11.8594 9.51667 11.9208 9.66875 12.0437 9.79167C12.166 9.91458 12.3181 9.97604 12.5 9.97604ZM12.5031 21.875C11.2073 21.875 9.98854 21.6292 8.84687 21.1375C7.7059 20.6451 6.71319 19.9771 5.86875 19.1333C5.02431 18.2903 4.3559 17.2986 3.86354 16.1583C3.37118 15.0181 3.125 13.7997 3.125 12.5031C3.125 11.2073 3.37083 9.98854 3.8625 8.84687C4.35486 7.7059 5.02292 6.71319 5.86667 5.86875C6.70972 5.02431 7.70139 4.3559 8.84167 3.86354C9.98194 3.37118 11.2003 3.125 12.4969 3.125C13.7927 3.125 15.0115 3.37083 16.1531 3.8625C17.2941 4.35486 18.2868 5.02292 19.1312 5.86667C19.9757 6.70972 20.6441 7.70139 21.1365 8.84167C21.6288 9.98194 21.875 11.2003 21.875 12.4969C21.875 13.7927 21.6292 15.0115 21.1375 16.1531C20.6451 17.2941 19.9771 18.2868 19.1333 19.1312C18.2903 19.9757 17.2986 20.6441 16.1583 21.1365C15.0181 21.6288 13.7997 21.875 12.5031 21.875Z" fill="black"/>
</g>
</svg>
