<svg width="35" height="40" viewBox="0 0 35 40" fill="none" xmlns="http://www.w3.org/2000/svg">
<path d="M11.7781 23.4925C11.7781 23.1178 11.5937 22.7584 11.2655 22.4935C10.9373 22.2285 10.4922 22.0797 10.0281 22.0797C9.56395 22.0797 9.11883 22.2285 8.79064 22.4935C8.46245 22.7584 8.27808 23.1178 8.27808 23.4925C8.27808 23.8672 8.46245 24.2265 8.79064 24.4915C9.11883 24.7564 9.56395 24.9052 10.0281 24.9052C10.4922 24.9052 10.9373 24.7564 11.2655 24.4915C11.5937 24.2265 11.7781 23.8672 11.7781 23.4925ZM25.7781 23.4925C25.7781 23.1178 25.5937 22.7584 25.2655 22.4935C24.9373 22.2285 24.4922 22.0797 24.0281 22.0797C23.5639 22.0797 23.1188 22.2285 22.7906 22.4935C22.4625 22.7584 22.2781 23.1178 22.2781 23.4925C22.2781 23.8672 22.4625 24.2265 22.7906 24.4915C23.1188 24.7564 23.5639 24.9052 24.0281 24.9052C24.4922 24.9052 24.9373 24.7564 25.2655 24.4915C25.5937 24.2265 25.7781 23.8672 25.7781 23.4925ZM11.7781 10.7775H10.2731C9.26145 10.7773 8.28101 11.0602 7.49865 11.5779C6.71629 12.0957 6.18036 12.8163 5.98208 13.6171L5.63558 15.0158H4.34058C3.99248 15.0158 3.65864 15.1274 3.4125 15.3261C3.16636 15.5249 3.02808 15.7944 3.02808 16.0754C3.02808 16.3564 3.16636 16.6259 3.4125 16.8246C3.65864 17.0233 3.99248 17.135 4.34058 17.135H5.11058L4.91633 17.9261C4.3714 18.0548 3.89282 18.3226 3.55238 18.6894C3.21193 19.0562 3.02797 19.5022 3.02808 19.9605V27.0244C3.02808 27.5865 3.30464 28.1255 3.79692 28.5229C4.2892 28.9203 4.95688 29.1436 5.65308 29.1436H6.52808V30.5564C6.52808 30.9311 6.71245 31.2904 7.04064 31.5554C7.36883 31.8203 7.81395 31.9691 8.27808 31.9691C8.74221 31.9691 9.18732 31.8203 9.51551 31.5554C9.8437 31.2904 10.0281 30.9311 10.0281 30.5564V29.1436H24.0281V30.5564C24.0281 30.9311 24.2125 31.2904 24.5406 31.5554C24.8688 31.8203 25.3139 31.9691 25.7781 31.9691C26.2422 31.9691 26.6873 31.8203 27.0155 31.5554C27.3437 31.2904 27.5281 30.9311 27.5281 30.5564V29.1436H28.4031C29.0993 29.1436 29.7669 28.9203 30.2592 28.5229C30.7515 28.1255 31.0281 27.5865 31.0281 27.0244V19.9605C31.0282 19.5022 30.8442 19.0562 30.5038 18.6894C30.1633 18.3226 29.6848 18.0548 29.1398 17.9261L28.9438 17.135H29.7156L29.8941 17.1251C30.2083 17.0903 30.4963 16.9648 30.7047 16.7718C30.9132 16.5788 31.0281 16.3314 31.0281 16.0754L31.0158 15.9313C30.9727 15.6776 30.8172 15.4451 30.5782 15.2768C30.3392 15.1085 30.0327 15.0158 29.7156 15.0158H28.4188L28.0741 13.6171C27.8758 12.8163 27.3399 12.0957 26.5575 11.5779C25.7751 11.0602 24.7947 10.7773 23.7831 10.7775H22.2781V9.01149C22.2781 8.73047 22.1398 8.46096 21.8937 8.26225C21.6475 8.06354 21.3137 7.9519 20.9656 7.9519H13.0906C12.7425 7.9519 12.4086 8.06354 12.1625 8.26225C11.9164 8.46096 11.7781 8.73047 11.7781 9.01149V10.7775ZM13.5281 10.7775V9.36468H20.5281V10.7775H13.5281ZM5.65308 19.2541H28.4031C28.6351 19.2541 28.8577 19.3286 29.0218 19.461C29.1859 19.5935 29.2781 19.7732 29.2781 19.9605V27.0244C29.2781 27.2118 29.1859 27.3914 29.0218 27.5239C28.8577 27.6564 28.6351 27.7308 28.4031 27.7308H5.65308C5.42101 27.7308 5.19845 27.6564 5.03436 27.5239C4.87026 27.3914 4.77808 27.2118 4.77808 27.0244V19.9605C4.77808 19.7732 4.87026 19.5935 5.03436 19.461C5.19845 19.3286 5.42101 19.2541 5.65308 19.2541ZM10.2731 12.1902H23.7831C24.39 12.1902 24.9782 12.36 25.4475 12.6706C25.9169 12.9812 26.2384 13.4136 26.3573 13.8941L27.3373 17.8414H6.72058L7.69883 13.8941C7.81772 13.4138 8.13897 12.9817 8.60796 12.6711C9.07694 12.3604 9.66646 12.1905 10.2731 12.1902Z" fill="#282828"/>
</svg>
